<svg width="96" height="96" xmlns="http://www.w3.org/2000/svg" xmlns:xlink="http://www.w3.org/1999/xlink" xml:space="preserve" overflow="hidden"><g transform="translate(-59 -574)"><path d="M90.2 625.5C86.4 627 82.9 629 79.7 631.5 77.5 633.3 76.1 636 76 638.9L74.3 653.7C74 655.9 75 658.1 76.8 659.3 78.6 660.5 80.5 661.4 82.5 662.2L83.4 662.2 83.4 658.3C81.9 657.7 80.4 656.9 79 656 78.4 655.6 78.1 654.9 78.2 654.2L80 639.2 80 639C80.1 637.2 80.9 635.6 82.3 634.5 85 632.2 88.9 630.1 94.3 628.1 97.3 629.9 101.9 631 107 631 112.1 631 116.7 629.9 119.7 628.1 125.2 630.1 129 632.2 131.7 634.5 133.1 635.6 133.9 637.3 134 639L135.8 654.1C135.9 654.8 135.6 655.5 135 655.9L135 655.9C133.6 656.8 132.2 657.6 130.6 658.2L130.6 662.1 131.5 662.1C133.5 661.4 135.4 660.4 137.2 659.2L137.2 659.2C139 657.9 140 655.8 139.7 653.6L138 638.9C137.9 636 136.5 633.3 134.3 631.5 131.1 629 127.6 626.9 123.8 625.5 123.8 620.4 124 606.4 124 600.7 124 599.1 123.8 597.5 123.4 595.9 122.1 591.1 118.8 587.1 114.4 584.8 114 584.6 113.4 584.6 113.1 584.9L112.2 585.6 111.2 584.2C110.9 583.7 110.4 583.4 109.9 583.3 108.9 583.1 108 583 107 583 103 583 99 584.5 96 587.1 92.2 590.5 90.1 595.3 90.2 600.4L90.2 625.5ZM95.2 609.2 95.9 601 118 601 118.7 609.2C117.5 615.7 111.3 620 104.7 618.8 99.9 617.9 96.1 614.1 95.2 609.2ZM99.2 625.9C100.3 625 101 623.5 101 622L101 621.8C104.8 623.4 109.2 623.4 113 621.8L113 622C113 623.5 113.7 624.9 114.8 625.9 112.3 626.7 109.6 627 107 627 104.4 627 101.7 626.7 99.2 625.9Z"/><path d="M128.6 639.3C128.6 637.9 127.5 636.8 126.1 636.8L126.1 636.8 88 636.8C86.6 636.8 85.5 637.9 85.5 639.3L85.5 639.3 85.5 664.2 77.9 664.2 77.9 665.5C77.9 666.9 79 668 80.4 668L133.7 668C135.1 668 136.2 666.9 136.2 665.5L136.2 664.2 128.6 664.2 128.6 639.3ZM101.8 655.8 100.4 657.2 94.8 651.6 100.4 646 101.8 647.4 97.6 651.6 101.8 655.8ZM105.6 657.9 103.8 657.1 108.5 645.8 110.3 646.6 105.6 657.9ZM113.6 657.3 112.2 655.9 116.4 651.7 112.2 647.5 113.6 646.1 119.2 651.7 113.6 657.3Z"/></g></svg>