<svg width="96" height="96" xmlns="http://www.w3.org/2000/svg" xmlns:xlink="http://www.w3.org/1999/xlink" xml:space="preserve" overflow="hidden"><g transform="translate(-864 -575)"><path d="M926.2 629.6C930.4 631.1 934.4 632.8 937.7 635.5 939.1 636.6 939.9 638.2 939.9 640L941.7 655.5C941.8 656.2 941.5 656.9 940.9 657.3L940.9 657.3C939.2 658.4 937.4 659.3 935.5 659.9L935.5 663.1 938.2 663.1C939.9 662.4 941.6 661.6 943.1 660.6L943.1 660.6C944.9 659.4 945.9 657.2 945.6 655L944 639.9C943.9 637 942.6 634.3 940.3 632.5 936.6 629.4 932.2 627.5 927.6 625.9L922.7 623.9C922.3 623.7 922.1 623.4 922.1 623L922.1 620.6C925.9 617.6 928.1 613 928.1 608.1L928.1 604.5C928.7 604.9 929.4 605 930.1 605.1L928.4 600.1C928.2 599.4 928 598.7 927.9 598 927.1 592.3 923.7 588.3 919 585.8 918.6 585.6 918.1 585.6 917.7 585.9L916.8 586.6 915.8 585.2C915.5 584.8 915.1 584.4 914.6 584.3 913.7 584.1 912.8 584 911.9 584 904 584 897.4 590.2 896 598.3L896 599 896 599 896 600.7C896 602.9 895.6 605 894.7 607L893 611C893 611 894.2 610.7 896.2 610.1 896.7 614.2 898.8 617.9 902 620.4L902 622.9C902 623.3 901.8 623.7 901.4 623.8L896.5 625.8C891.9 627.4 887.5 629.3 883.8 632.4 881.5 634.2 880.1 636.9 880 639.8L878.3 655C878 657.2 879 659.4 880.8 660.6 882.3 661.6 884 662.4 885.7 663.1L888.5 663.1 888.5 660C886.6 659.3 884.8 658.5 883.1 657.4 882.5 657 882.2 656.3 882.3 655.6L884 640.2 884 640C884 638.2 884.9 636.6 886.3 635.5 889.6 632.8 893.6 631.1 897.8 629.6L899.4 629.1C902.3 630.9 906.9 632 912 632 917.1 632 921.7 630.9 924.7 629.1L926.2 629.6ZM900 608.9C906.8 606.6 916.6 602.6 921 597 921.9 598.4 922.9 599.7 924 601L924 608C924 614.6 918.6 620 912 620 905.7 620 900.5 615.2 900 608.9ZM904 626.9C905.2 626 906 624.5 906 622.9L906 622.8C909.8 624.4 914.2 624.4 918 622.8L918 622.9C918 624.4 918.7 625.9 919.9 626.9 917.3 627.7 914.6 628.1 911.9 628 909.3 628 906.6 627.6 904 626.9Z"/><path d="M933.6 640.3C933.6 638.9 932.5 637.8 931.1 637.8L931.1 637.8 893 637.8C891.6 637.8 890.5 638.9 890.5 640.3L890.5 640.3 890.5 665.2 882.9 665.2 882.9 666.5C882.9 667.9 884 669 885.4 669L938.7 669C940.1 669 941.2 667.9 941.2 666.5L941.2 665.2 933.6 665.2 933.6 640.3ZM906.8 656.8 905.4 658.2 899.8 652.6 905.4 647 906.8 648.4 902.6 652.6 906.8 656.8ZM910.6 658.9 908.8 658.1 913.5 646.8 915.3 647.6 910.6 658.9ZM918.6 658.3 917.2 656.9 921.4 652.7 917.2 648.5 918.6 647.1 924.2 652.7 918.6 658.3Z"/></g></svg>