<?xml version="1.0" encoding="UTF-8"?>
<!DOCTYPE svg PUBLIC "-//W3C//DTD SVG 1.1//EN" "http://www.w3.org/Graphics/SVG/1.1/DTD/svg11.dtd">
<svg xmlns="http://www.w3.org/2000/svg" version="1.1" width="783px" height="755px" style="shape-rendering:geometricPrecision; text-rendering:geometricPrecision; image-rendering:optimizeQuality; fill-rule:evenodd; clip-rule:evenodd" xmlns:xlink="http://www.w3.org/1999/xlink">
<g><path style="opacity:0.982" fill="#fefffe" d="M 64.5,11.5 C 180.167,11.3333 295.834,11.5 411.5,12C 409.714,12.7845 408.214,13.9512 407,15.5C 406.5,34.1637 406.333,52.8304 406.5,71.5C 410.516,72.1001 414.016,71.1001 417,68.5C 417.667,50.5 417.667,32.5 417,14.5C 416.097,13.2986 414.931,12.4652 413.5,12C 423.878,11.1618 434.212,11.4952 444.5,13C 456.524,17.2047 462.524,25.7047 462.5,38.5C 460.598,47.6103 458.932,56.777 457.5,66C 460.602,90.7711 474.602,103.104 499.5,103C 511.269,101.226 520.436,95.393 527,85.5C 530.853,75.0679 534.853,64.7346 539,54.5C 547.867,45.1267 558.367,42.6267 570.5,47C 589.425,55.7034 606.925,66.5367 623,79.5C 629.267,90.7399 628.934,101.74 622,112.5C 616.633,117.532 611.633,122.865 607,128.5C 596.558,149.503 600.725,167.003 619.5,181C 633.023,188.545 646.356,188.212 659.5,180C 665.469,175.033 671.135,169.699 676.5,164C 690.116,156.629 702.283,158.462 713,169.5C 723.598,185.019 732.931,201.352 741,218.5C 744.549,230.816 741.382,240.982 731.5,249C 724.149,252.426 716.482,255.092 708.5,257C 689.83,265.5 681.996,280 685,300.5C 690.453,318.641 702.62,328.307 721.5,329.5C 730.731,328.234 739.898,326.568 749,324.5C 762.739,325.24 771.405,332.24 775,345.5C 777,365.167 777,384.833 775,404.5C 771.405,417.76 762.739,424.76 749,425.5C 739.898,423.432 730.731,421.766 721.5,420.5C 694.357,423.82 682.191,439.154 685,466.5C 688.567,479.146 696.401,487.979 708.5,493C 716.482,494.908 724.149,497.574 731.5,501C 741.382,509.018 744.549,519.184 741,531.5C 732.931,548.648 723.598,564.981 713,580.5C 702.283,591.538 690.116,593.371 676.5,586C 669.609,577.433 661.276,570.767 651.5,566C 626.653,560.173 610.153,569.34 602,593.5C 600.204,603.48 601.871,612.813 607,621.5C 611.633,627.135 616.633,632.468 622,637.5C 628.103,646.925 629.103,656.925 625,667.5C 622.872,670.63 620.372,673.463 617.5,676C 602.349,685.799 586.683,694.799 570.5,703C 558.367,707.373 547.867,704.873 539,695.5C 534.853,685.265 530.853,674.932 527,664.5C 515.794,648.987 500.96,643.82 482.5,649C 465.011,656.805 456.844,670.305 458,689.5C 460.025,696.738 461.525,704.071 462.5,711.5C 461.685,726.816 453.685,735.65 438.5,738C 430.167,738.667 421.833,738.667 413.5,738C 414.931,737.535 416.097,736.701 417,735.5C 417.667,721.5 417.667,707.5 417,693.5C 414.016,690.9 410.516,689.9 406.5,690.5C 406.333,705.17 406.5,719.837 407,734.5C 407.979,736.32 409.479,737.487 411.5,738C 351.5,738.667 291.5,738.667 231.5,738C 230.333,737.5 229.5,736.667 229,735.5C 228.333,721.5 228.333,707.5 229,693.5C 229.308,692.692 229.808,692.025 230.5,691.5C 255.775,689.868 281.108,689.202 306.5,689.5C 306.5,664.833 306.5,640.167 306.5,615.5C 227.166,615.667 147.833,615.5 68.5,615C 37.6876,609.855 18.8543,592.022 12,561.5C 11.3333,395.833 11.3333,230.167 12,64.5C 19.0186,36.3152 36.5186,18.6486 64.5,11.5 Z M 74.5,72.5 C 184.833,72.5 295.167,72.5 405.5,72.5C 405.5,121.167 405.5,169.833 405.5,218.5C 390.123,219.118 375.123,221.785 360.5,226.5C 360.5,202.833 360.5,179.167 360.5,155.5C 379.2,149.798 387.033,137.131 384,117.5C 376.817,97.8234 362.984,90.6568 342.5,96C 325.289,104.931 319.456,118.765 325,137.5C 329.415,147.421 336.915,153.421 347.5,155.5C 347.833,181.175 347.5,206.842 346.5,232.5C 333.049,238.636 320.882,246.636 310,256.5C 309.986,222.748 309.32,189.082 308,155.5C 269.025,145.131 229.858,135.465 190.5,126.5C 187.841,100.986 173.841,90.8189 148.5,96C 133.277,102.939 126.777,114.772 129,131.5C 135.468,151.321 148.968,159.154 169.5,155C 177.891,151.904 184.057,146.404 188,138.5C 223.963,147.657 259.963,156.657 296,165.5C 296.667,200.167 296.667,234.833 296,269.5C 287.501,279 280.168,289.333 274,300.5C 246.527,291.342 219.027,282.176 191.5,273C 189.326,246.159 174.992,235.159 148.5,240C 133.277,246.939 126.777,258.772 129,275.5C 135.468,295.321 148.968,303.154 169.5,299C 176.562,295.752 182.562,291.252 187.5,285.5C 214.713,294.182 241.713,303.349 268.5,313C 257.189,338.703 253.189,365.536 256.5,393.5C 226.701,401.488 197.034,409.988 167.5,419C 167,419.5 166.5,420 166,420.5C 165.5,434.496 165.333,448.496 165.5,462.5C 146.86,467.757 138.693,480.091 141,499.5C 147.099,518.141 159.932,525.974 179.5,523C 196.773,516.969 204.273,504.802 202,486.5C 198.61,473.61 190.443,465.61 177.5,462.5C 177.179,451.252 177.513,440.085 178.5,429C 204.5,421.5 230.5,414 256.5,406.5C 257.647,406.818 258.481,407.484 259,408.5C 268.978,450.981 292.144,484.147 328.5,508C 352.156,522.385 377.822,530.218 405.5,531.5C 405.5,539.167 405.5,546.833 405.5,554.5C 295.167,554.5 184.833,554.5 74.5,554.5C 74.5,393.833 74.5,233.167 74.5,72.5 Z M 396.5,231.5 C 399.5,231.5 402.5,231.5 405.5,231.5C 405.5,252.833 405.5,274.167 405.5,295.5C 388.414,295.785 371.414,297.118 354.5,299.5C 359.163,277.503 366.663,256.503 377,236.5C 383.413,234.133 389.913,232.467 396.5,231.5 Z M 418.5,231.5 C 428.546,231.409 438.213,233.076 447.5,236.5C 458.105,256.819 465.605,278.153 470,300.5C 453.04,297.182 435.873,295.515 418.5,295.5C 418.5,274.167 418.5,252.833 418.5,231.5 Z M 357.5,241.5 C 358.376,241.369 359.043,241.702 359.5,242.5C 351.104,261.523 344.604,281.19 340,301.5C 319.316,306.784 299.149,313.784 279.5,322.5C 279.167,322.167 278.833,321.833 278.5,321.5C 294.825,284.842 321.158,258.176 357.5,241.5 Z M 464.5,242.5 C 464.56,241.957 464.893,241.624 465.5,241.5C 503.767,257.264 530.267,284.264 545,322.5C 525.919,313.806 506.085,307.306 485.5,303C 481.748,289.074 477.581,275.241 473,261.5C 470.666,254.84 467.832,248.507 464.5,242.5 Z M 388.5,308.5 C 394.167,308.5 399.833,308.5 405.5,308.5C 405.5,328.5 405.5,348.5 405.5,368.5C 385.5,368.5 365.5,368.5 345.5,368.5C 345.921,350.048 347.587,331.715 350.5,313.5C 363.283,311.653 375.95,309.986 388.5,308.5 Z M 418.5,308.5 C 436.964,308.785 455.297,310.451 473.5,313.5C 476.753,331.701 478.753,350.034 479.5,368.5C 459.167,368.5 438.833,368.5 418.5,368.5C 418.5,348.5 418.5,328.5 418.5,308.5 Z M 335.5,316.5 C 336.239,316.369 336.906,316.536 337.5,317C 334.385,333.981 332.719,351.147 332.5,368.5C 311.167,368.5 289.833,368.5 268.5,368.5C 268.744,358.696 270.41,349.196 273.5,340C 293.404,329.87 314.07,322.036 335.5,316.5 Z M 487.5,317.5 C 509.999,321.999 531.333,329.666 551.5,340.5C 553.981,349.557 555.648,358.724 556.5,368C 534.836,368.5 513.169,368.667 491.5,368.5C 491.61,351.378 490.277,334.378 487.5,317.5 Z M 268.5,381.5 C 289.833,381.5 311.167,381.5 332.5,381.5C 332.796,398.651 334.463,415.651 337.5,432.5C 315.233,428.352 293.9,420.852 273.5,410C 270.399,400.804 268.732,391.304 268.5,381.5 Z M 345.5,381.5 C 365.5,381.5 385.5,381.5 405.5,381.5C 405.5,401.5 405.5,421.5 405.5,441.5C 387.306,441.539 369.306,439.706 351.5,436C 347.858,418.057 345.858,399.89 345.5,381.5 Z M 418.5,381.5 C 438.836,381.333 459.169,381.5 479.5,382C 478.46,400.225 476.46,418.391 473.5,436.5C 455.297,439.549 436.964,441.215 418.5,441.5C 418.5,421.5 418.5,401.5 418.5,381.5 Z M 491.5,381.5 C 513.169,381.333 534.836,381.5 556.5,382C 555.648,391.276 553.981,400.443 551.5,409.5C 531.299,420.345 509.966,428.011 487.5,432.5C 490.157,415.608 491.49,398.608 491.5,381.5 Z M 278.5,427.5 C 298.148,436.16 318.481,442.827 339.5,447.5C 344.368,468.104 351.035,488.104 359.5,507.5C 354.435,506.637 349.435,504.804 344.5,502C 313.785,484.791 291.785,459.958 278.5,427.5 Z M 544.5,427.5 C 545.573,428.251 545.74,429.251 545,430.5C 528.839,467.666 502.005,493.499 464.5,508C 473.123,488.464 479.957,468.297 485,447.5C 505.621,442.904 525.455,436.238 544.5,427.5 Z M 469.5,449.5 C 465.252,471.568 457.919,492.901 447.5,513.5C 438.207,516.874 428.54,518.54 418.5,518.5C 418.5,497.167 418.5,475.833 418.5,454.5C 435.807,454.505 452.807,452.838 469.5,449.5 Z M 354.5,450.5 C 371.414,452.882 388.414,454.215 405.5,454.5C 405.5,475.833 405.5,497.167 405.5,518.5C 395.663,518.454 386.163,516.787 377,513.5C 366.819,493.457 359.319,472.457 354.5,450.5 Z M 406.5,555.5 C 410.257,555.071 413.757,555.737 417,557.5C 417.667,575.5 417.667,593.5 417,611.5C 416.5,612.667 415.667,613.5 414.5,614C 411.854,614.497 409.187,614.664 406.5,614.5C 406.5,594.833 406.5,575.167 406.5,555.5 Z M 320.5,615.5 C 348.833,615.5 377.167,615.5 405.5,615.5C 405.5,640.167 405.5,664.833 405.5,689.5C 377.167,689.5 348.833,689.5 320.5,689.5C 320.5,664.833 320.5,640.167 320.5,615.5 Z"/></g>
</svg>
