<?xml version="1.0" encoding="UTF-8"?>
<!DOCTYPE svg PUBLIC "-//W3C//DTD SVG 1.1//EN" "http://www.w3.org/Graphics/SVG/1.1/DTD/svg11.dtd">
<svg xmlns="http://www.w3.org/2000/svg" version="1.1" width="2040px" height="489px" style="shape-rendering:geometricPrecision; text-rendering:geometricPrecision; image-rendering:optimizeQuality; fill-rule:evenodd; clip-rule:evenodd" xmlns:xlink="http://www.w3.org/1999/xlink">
<g><path style="opacity:0.972" fill="#fefffe" d="M 735.5,9.5 C 779.835,9.33334 824.168,9.50001 868.5,10C 870.667,10.8333 872.167,12.3333 873,14.5C 873.5,124.166 873.667,233.833 873.5,343.5C 903.835,343.333 934.168,343.5 964.5,344C 966.667,344.833 968.167,346.333 969,348.5C 969.917,357.909 969.584,367.242 968,376.5C 966.829,377.893 965.329,378.727 963.5,379C 886.167,379.667 808.833,379.667 731.5,379C 729.714,378.215 728.214,377.049 727,375.5C 725,365.833 725,356.167 727,346.5C 727.903,345.299 729.069,344.465 730.5,344C 764.498,343.5 798.498,343.333 832.5,343.5C 832.5,244.167 832.5,144.833 832.5,45.5C 800.498,45.6666 768.498,45.5 736.5,45C 734.714,44.2155 733.214,43.0488 732,41.5C 731.333,32.1667 731.333,22.8333 732,13.5C 733.102,12.051 734.269,10.7177 735.5,9.5 Z"/></g>
<g><path style="opacity:0.971" fill="#fefffe" d="M 126.5,114.5 C 166.832,111.237 202.165,122.737 232.5,149C 238.679,155.514 244.512,162.347 250,169.5C 252.778,175.089 251.612,179.589 246.5,183C 239.683,187.492 232.517,191.325 225,194.5C 223.775,194.138 222.609,193.638 221.5,193C 195.731,159.96 162.065,146.96 120.5,154C 76.6251,165.217 51.7918,193.384 46,238.5C 42.7904,273.888 53.9571,303.722 79.5,328C 111.584,350.438 145.918,354.438 182.5,340C 197.398,332.719 209.732,322.386 219.5,309C 224.278,305.741 228.944,306.074 233.5,310C 239.59,313.46 245.423,317.294 251,321.5C 251.667,324.167 251.667,326.833 251,329.5C 223.755,367.055 186.755,386.055 140,386.5C 81.9019,384.806 40.5685,357.806 16,305.5C -2.70058,253.785 3.96608,205.785 36,161.5C 60.0882,134.189 90.2549,118.522 126.5,114.5 Z"/></g>
<g><path style="opacity:0.972" fill="#fefffe" d="M 473.5,114.5 C 529.529,110.973 573.029,132.306 604,178.5C 626.128,218.272 629.461,259.605 614,302.5C 586.873,359.996 541.373,387.829 477.5,386C 419.987,379.996 380.487,350.162 359,296.5C 341.207,236.479 355.374,185.646 401.5,144C 422.863,127.605 446.863,117.771 473.5,114.5 Z M 475.5,152.5 C 517.904,149.783 550.071,166.45 572,202.5C 593.425,249.036 585.925,290.203 549.5,326C 513.651,352.757 475.984,355.424 436.5,334C 398.416,306.103 384.583,268.936 395,222.5C 408.137,183.183 434.971,159.85 475.5,152.5 Z"/></g>
<g><path style="opacity:0.971" fill="#fefffe" d="M 1175.5,114.5 C 1202.19,112.253 1228.19,115.42 1253.5,124C 1285.37,138.855 1301.87,164.021 1303,199.5C 1303.33,243.167 1303.67,286.833 1304,330.5C 1304.89,335.388 1307.39,339.221 1311.5,342C 1316.89,344.581 1322.56,346.247 1328.5,347C 1330.33,347.5 1331.5,348.667 1332,350.5C 1334.16,359.574 1334,368.574 1331.5,377.5C 1330.5,378.333 1329.5,379.167 1328.5,380C 1312.76,383.395 1297.76,381.395 1283.5,374C 1273.85,365.409 1269.02,354.575 1269,341.5C 1231.26,374.746 1187.09,389.246 1136.5,385C 1084.41,378.904 1061.25,349.737 1067,297.5C 1071.54,274.3 1084.37,257.466 1105.5,247C 1113.96,243.401 1122.63,240.401 1131.5,238C 1169.44,231.627 1207.44,225.627 1245.5,220C 1252.69,219.275 1258.86,216.442 1264,211.5C 1264.54,196.669 1260.88,183.002 1253,170.5C 1246.05,162.608 1237.55,157.108 1227.5,154C 1206.25,148.379 1184.92,148.045 1163.5,153C 1148.95,155.353 1137.11,162.186 1128,173.5C 1123.65,180.538 1120.99,188.205 1120,196.5C 1118.79,198.049 1117.29,199.215 1115.5,200C 1105.83,200.667 1096.17,200.667 1086.5,200C 1084.71,199.215 1083.21,198.049 1082,196.5C 1082.46,161.408 1098.96,137.241 1131.5,124C 1145.96,119.211 1160.62,116.044 1175.5,114.5 Z M 1263.5,245.5 C 1264.66,266.329 1264.83,287.329 1264,308.5C 1227.63,342.308 1184.8,355.141 1135.5,347C 1120.56,343.056 1111.39,333.556 1108,318.5C 1103.86,295.933 1112.36,280.433 1133.5,272C 1137.77,270.465 1142.11,269.131 1146.5,268C 1180.12,262.388 1213.78,257.055 1247.5,252C 1251.55,251.206 1255.55,250.206 1259.5,249C 1261.09,248.051 1262.43,246.885 1263.5,245.5 Z"/></g>
<g><path style="opacity:0.971" fill="#fefffe" d="M 1564.5,114.5 C 1633.62,115.459 1675.12,149.793 1689,217.5C 1696.22,256.865 1690.55,294.198 1672,329.5C 1648.79,367.028 1614.96,385.695 1570.5,385.5C 1535.98,386.147 1507.14,373.814 1484,348.5C 1482.33,346.167 1480.67,343.833 1479,341.5C 1478.67,385.5 1478.33,429.5 1478,473.5C 1477.29,475.081 1476.46,476.581 1475.5,478C 1464.6,479.62 1453.6,479.954 1442.5,479C 1439.9,478.065 1438.4,476.232 1438,473.5C 1437.33,357.833 1437.33,242.167 1438,126.5C 1438.35,124.152 1439.51,122.319 1441.5,121C 1452.5,120.333 1463.5,120.333 1474.5,121C 1476.49,122.319 1477.65,124.152 1478,126.5C 1478.5,139.496 1478.67,152.496 1478.5,165.5C 1479.98,165.762 1481.31,165.429 1482.5,164.5C 1500.97,133.38 1528.3,116.713 1564.5,114.5 Z M 1556.5,152.5 C 1608.66,150.811 1639.82,175.478 1650,226.5C 1655.26,256.008 1650.93,284.008 1637,310.5C 1619.44,335.781 1595.11,348.448 1564,348.5C 1516.99,344.828 1488.65,319.828 1479,273.5C 1472.25,239.219 1479.25,208.219 1500,180.5C 1515.51,164.33 1534.34,154.996 1556.5,152.5 Z"/></g>
<g><path style="opacity:0.971" fill="#fefffe" d="M 1886.5,114.5 C 1914.79,112.529 1942.46,115.695 1969.5,124C 2000.62,136.297 2017.95,159.13 2021.5,192.5C 2021,195.188 2019.66,197.355 2017.5,199C 2006.83,199.667 1996.17,199.667 1985.5,199C 1983.95,197.786 1982.78,196.286 1982,194.5C 1978.09,172.59 1965.26,159.09 1943.5,154C 1916.73,147.692 1890.07,148.025 1863.5,155C 1838.88,163.731 1830.38,180.565 1838,205.5C 1841.12,210.954 1845.29,215.454 1850.5,219C 1858.4,223.188 1866.73,226.188 1875.5,228C 1900.8,232.186 1926.13,236.186 1951.5,240C 1972.51,243.016 1991.51,250.683 2008.5,263C 2023.68,279.173 2029.51,298.34 2026,320.5C 2021.07,346.099 2006.57,363.932 1982.5,374C 1958.81,382.754 1934.31,386.921 1909,386.5C 1880.46,387.496 1853.3,381.996 1827.5,370C 1802.98,355.125 1790.81,333.292 1791,304.5C 1791.83,303.667 1792.67,302.833 1793.5,302C 1804.17,301.333 1814.83,301.333 1825.5,302C 1826.93,302.465 1828.1,303.299 1829,304.5C 1830.58,320.186 1838.08,332.019 1851.5,340C 1869.76,347.962 1888.93,351.796 1909,351.5C 1926.24,351.609 1943.07,349.109 1959.5,344C 1985.73,333.63 1992.89,315.796 1981,290.5C 1973.47,283.148 1964.63,277.982 1954.5,275C 1928.68,269.645 1902.68,265.311 1876.5,262C 1853.72,259.08 1833.05,251.08 1814.5,238C 1798.55,221.747 1792.39,202.247 1796,179.5C 1800.82,152.017 1816.32,133.517 1842.5,124C 1856.91,118.994 1871.57,115.827 1886.5,114.5 Z"/></g>
</svg>
