<svg width="1318" height="1106" xmlns="http://www.w3.org/2000/svg" xmlns:xlink="http://www.w3.org/1999/xlink" xml:space="preserve" overflow="hidden"><g transform="translate(-972 -405)"><path d="M1580.68 752.264 1652.5 405.714 1743.24 651.44 1942.39 512.46 1915.02 679.52 2157.69 611.723 2026.54 798.674 2289.57 829.13 2037.76 926.765 2210.99 1125.05 1924.24 1061.1 1993.19 1314.47 1754.91 1165.22 1786.93 1510.49 1624.46 1262.92 1513.73 1421.63 1484.48 1236.34 1213.7 1396.66 1340.08 1186.31 1083.86 1134.06 1300.99 979.749 972.802 843.978 1412.22 858.251 1382.8 654.402Z" fill-rule="evenodd"/><path d="M1625.38 747.072 1723.61 449.181 1780.47 672.115 1972.01 566.734 1931.13 710.935 2154.52 671.558 2019 824.62 2250.92 873.067 2016.43 937.848 2151.64 1126.01 1901.83 1046.24 1938.5 1274.07 1740.37 1123.52 1735.01 1428.87 1614.25 1198.4 1499.75 1328.39 1491.85 1163.52 1234.26 1281.69 1367.81 1107.72 1144.13 1040.73 1353.22 923.391 1073.47 777.226 1464.5 826.066 1458.29 644.915Z" fill="#FFFFFF" fill-rule="evenodd"/></g></svg>